HIERARCHY
ROOT Hips
{
	OFFSET 0.000000 0.000000 0.000000
	CHANNELS 6 Xposition Yposition Zposition Zrotation Yrotation Xrotation 
	JOINT LeftUpLeg_virtual
	{
		OFFSET 0.000000 0.000000 0.000000
		CHANNELS 3 Zrotation Yrotation Xrotation
		JOINT LeftUpLeg
		{
			OFFSET 10.205400 -3.823500 0.155100
			CHANNELS 3 Zrotation Yrotation Xrotation
			JOINT LeftLeg
			{
				OFFSET 0.708757 -12.982077 0.567790
				CHANNELS 3 Zrotation Yrotation Xrotation
				JOINT LeftFoot
				{
					OFFSET -0.708756 -10.717838 -2.184338
					CHANNELS 3 Zrotation Yrotation Xrotation
					JOINT LeftToeBase
					{
						OFFSET 0.108149 -7.191104 7.560241
						CHANNELS 3 Zrotation Yrotation Xrotation
						End Site
						{
							OFFSET 0.000000 0.000000 0.000000
						}
					}
				}
			}
		}
	}
	JOINT RightUpLeg_virtual
	{
		OFFSET 0.000000 0.000000 0.000000
		CHANNELS 3 Zrotation Yrotation Xrotation
		JOINT RightUpLeg
		{
			OFFSET -10.205400 -3.823500 0.005500
			CHANNELS 3 Zrotation Yrotation Xrotation
			JOINT RightLeg
			{
				OFFSET -0.708756 -12.982134 0.610632
				CHANNELS 3 Zrotation Yrotation Xrotation
				JOINT RightFoot
				{
					OFFSET 0.708754 -10.717769 -1.945823
					CHANNELS 3 Zrotation Yrotation Xrotation
					JOINT RightToeBase
					{
						OFFSET -0.108140 -7.191069 7.372968
						CHANNELS 3 Zrotation Yrotation Xrotation
						End Site
						{
							OFFSET 0.000000 0.000000 0.000000
						}
					}
				}
			}
		}
	}
	JOINT Spine_virtual
	{
		OFFSET 0.000000 0.000000 0.000000
		CHANNELS 3 Zrotation Yrotation Xrotation
		JOINT Spine
		{
			OFFSET 0.000000 6.876099 0.125700
			CHANNELS 3 Zrotation Yrotation Xrotation
			JOINT Spine1
			{
				OFFSET 0.000000 8.022060 0.146608
				CHANNELS 3 Zrotation Yrotation Xrotation
				JOINT Spine2
				{
					OFFSET 0.000000 9.168068 0.167552
					CHANNELS 3 Zrotation Yrotation Xrotation
					JOINT Neck_virtual
					{
						OFFSET 0.000000 0.000000 0.000000
						CHANNELS 3 Zrotation Yrotation Xrotation
						JOINT Neck
						{
							OFFSET 0.000000 10.314075 0.188496
							CHANNELS 3 Zrotation Yrotation Xrotation
							JOINT Head
							{
								OFFSET 0.000000 7.643700 -2.377400
								CHANNELS 3 Zrotation Yrotation Xrotation
								End Site
								{
									OFFSET 0.000000 0.000000 0.000000
								}
							}
						}
					}
					JOINT LeftShoulder_virtual
					{
						OFFSET 0.000000 0.000000 0.000000
						CHANNELS 3 Zrotation Yrotation Xrotation
						JOINT LeftShoulder
						{
							OFFSET 4.392200 8.824978 0.174984
							CHANNELS 3 Zrotation Yrotation Xrotation
							JOINT LeftArm
							{
								OFFSET 8.771219 -2.981674 -0.026999
								CHANNELS 3 Zrotation Yrotation Xrotation
								JOINT LeftForeArm
								{
									OFFSET 8.512804 0.000000 -0.000000
									CHANNELS 3 Zrotation Yrotation Xrotation
									JOINT LeftHand
									{
										OFFSET 18.484802 0.000000 -0.000000
										CHANNELS 3 Zrotation Yrotation Xrotation
										End Site
										{
											OFFSET 0.000000 0.000000 0.000000
										}
									}
								}
							}
						}
					}
					JOINT RightShoulder_virtual
					{
						OFFSET 0.000000 0.000000 0.000000
						CHANNELS 3 Zrotation Yrotation Xrotation
						JOINT RightShoulder
						{
							OFFSET -4.392200 8.824993 0.141379
							CHANNELS 3 Zrotation Yrotation Xrotation
							JOINT RightArm
							{
								OFFSET -8.771282 -2.981682 -0.094208
								CHANNELS 3 Zrotation Yrotation Xrotation
								JOINT RightForeArm
								{
									OFFSET -8.494598 0.000000 0.000000
									CHANNELS 3 Zrotation Yrotation Xrotation
									JOINT RightHand
									{
										OFFSET -18.483803 0.000000 0.000001
										CHANNELS 3 Zrotation Yrotation Xrotation
										End Site
										{
											OFFSET 0.000000 0.000000 0.000000
										}
									}
								}
							}
						}
					}
				}
			}
		}
	}
}
MOTION
Frames: 9
Frame Time: 0.033333
-2.352509 36.704678 33.333454 -179.928534 1.682932 -179.884001 -3.839179 -2.066434 9.368268 -4.215549 -1.698736 -15.779352 15.936372 11.402087 19.661345 -1.775028 2.410791 8.247623 0.000000 0.000000 0.000000 1.325998 -0.049241 6.908774 -1.127930 0.910572 -7.398501 -8.005189 -0.710594 11.718042 2.433545 5.416677 13.420188 0.000000 0.000000 0.000000 0.357708 1.281275 -3.814396 -3.350159 4.208292 -6.121830 -0.525229 -3.613131 3.150403 0.010616 -0.057883 0.003332 -1.302715 -1.403034 5.732767 1.083301 -5.281645 -2.209984 0.000000 0.000000 0.000000 0.370845 -0.492426 3.047118 5.369245 1.716819 -3.956159 2.468136 22.486123 -40.273527 -3.256121 -40.590394 -3.648760 0.000000 0.000000 0.000000 -3.427092 0.242965 2.698267 8.473807 -12.910067 -9.326967 12.491493 -26.849103 -31.344879 -1.586194 40.016050 -5.204437 0.000000 0.000000 0.000000 
-2.354568 36.707031 33.342251 -179.951743 1.730242 179.993216 -3.860704 -1.915097 9.386492 -4.255885 -1.656625 -15.807740 15.641611 10.774703 19.971772 -1.961520 2.222159 7.995408 0.000000 0.000000 0.000000 1.337578 -0.089250 6.963648 -1.171303 0.865450 -7.329946 -8.145209 -0.840046 11.692855 2.249310 5.278416 13.424144 0.000000 0.000000 0.000000 0.361858 1.337872 -3.719495 -3.354120 4.271269 -6.049178 -0.528866 -3.566372 3.179140 0.006600 -0.001737 -0.001773 -1.269420 -1.491336 5.707970 1.060431 -5.303424 -2.202677 0.000000 0.000000 0.000000 0.386598 -0.548663 3.072001 5.366756 1.678065 -4.144341 2.460872 22.437629 -40.231826 -3.284866 -40.610307 -3.605920 0.000000 0.000000 0.000000 -3.409654 0.169971 2.639141 8.443260 -12.959866 -9.307968 12.490402 -26.856360 -31.514387 -1.450458 40.020858 -5.069549 0.000000 0.000000 0.000000 
-2.358356 36.707863 33.354618 -179.955185 1.692735 179.970007 -3.809280 -1.975720 9.465512 -4.324787 -1.697506 -15.897042 15.668922 11.025105 19.913587 -1.936192 2.245351 8.171130 0.000000 0.000000 0.000000 1.330336 -0.123068 6.949343 -1.181989 0.883347 -7.323477 -8.144972 -0.833318 11.676308 2.248491 5.279688 13.457827 0.000000 0.000000 0.000000 0.369444 1.203700 -3.708733 -3.342700 4.163668 -6.041960 -0.509619 -3.494523 3.181473 0.016453 0.062123 -0.006864 -1.286535 -1.418818 5.697897 1.071897 -5.298475 -2.203946 0.000000 0.000000 0.000000 0.374774 -0.528514 3.047725 5.356671 1.691200 -4.038107 2.462520 22.434315 -40.200499 -3.258079 -40.580165 -3.628777 0.000000 0.000000 0.000000 -3.425963 0.203275 2.653044 8.437629 -12.881893 -9.302097 12.522569 -26.830730 -31.380201 -1.627292 39.998073 -5.270675 0.000000 0.000000 0.000000 
-2.362153 36.706997 33.370762 179.953573 1.768974 179.863483 -3.869427 -1.868179 9.497357 -4.361223 -1.755109 -15.829522 15.659564 10.991033 19.875903 -1.919501 2.261545 8.220221 0.000000 0.000000 0.000000 1.261367 -0.097152 6.949556 -1.172551 0.863272 -7.296121 -8.145761 -0.775685 11.763936 2.245059 5.271632 13.447025 0.000000 0.000000 0.000000 0.344962 1.280736 -3.623793 -3.362783 4.272142 -6.011843 -0.517068 -3.556720 3.203080 -0.008311 0.000031 0.002831 -1.207934 -1.479933 5.636229 1.103238 -5.262307 -2.150008 0.000000 0.000000 0.000000 0.451319 -0.545436 2.975458 5.350189 1.704394 -3.986022 2.423704 22.461470 -40.188082 -3.283937 -40.570525 -3.619526 0.000000 0.000000 0.000000 -3.344873 0.205873 2.603143 8.418509 -12.849436 -9.281351 12.571259 -26.802417 -31.449360 -1.620338 39.977469 -5.247849 0.000000 0.000000 0.000000 
-2.365308 36.708500 33.388985 -179.994432 1.727827 179.984459 -3.806108 -1.899078 9.312073 -4.401271 -1.755412 -15.737876 15.725822 11.061355 19.825089 -1.926092 2.258434 8.287559 0.000000 0.000000 0.000000 1.298376 -0.074433 6.875157 -1.193241 0.925396 -7.381015 -8.149913 -0.796449 11.753413 2.198854 5.255149 13.475603 0.000000 0.000000 0.000000 0.372846 1.278868 -3.658760 -3.352063 4.280546 -6.080181 -0.496402 -3.570766 3.178236 -0.006018 -0.007612 -0.015126 -1.184343 -1.369368 5.665219 1.107090 -5.273288 -2.081878 0.000000 0.000000 0.000000 0.457718 -0.543513 2.985087 5.292784 1.744410 -3.947749 2.442066 22.444036 -40.179124 -3.269083 -40.464496 -3.627379 0.000000 0.000000 0.000000 -3.330991 0.196733 2.626784 8.415392 -12.780276 -9.404163 12.574038 -26.840772 -31.537319 -1.427446 40.020206 -5.073107 0.000000 0.000000 0.000000 
-2.368881 36.710323 33.407528 179.953164 1.776252 179.987096 -3.846352 -1.861477 9.309211 -4.411690 -1.749873 -15.775206 15.700651 11.015349 19.765584 -1.916128 2.276038 8.353920 0.000000 0.000000 0.000000 1.265331 -0.056728 6.850354 -1.223947 0.937404 -7.431426 -8.140830 -0.788058 11.809829 2.176662 5.272552 13.482029 0.000000 0.000000 0.000000 0.346708 1.275344 -3.610924 -3.368811 4.333047 -6.089680 -0.485176 -3.528370 3.161096 0.006192 0.034719 -0.005674 -1.183379 -1.509028 5.632448 1.148794 -5.227105 -1.991545 0.000000 0.000000 0.000000 0.481504 -0.591107 2.993578 5.255764 1.726190 -3.918054 2.394468 22.440861 -40.207582 -3.274261 -40.435027 -3.575734 0.000000 0.000000 0.000000 -3.316749 0.208091 2.546777 8.423775 -12.727489 -9.120137 12.713922 -26.873837 -31.282307 -1.890135 39.982876 -5.534262 0.000000 0.000000 0.000000 
-2.372252 36.713017 33.426117 -179.953874 1.667468 179.980471 -3.744658 -1.961183 9.315066 -4.408086 -1.758798 -15.799179 15.685994 11.141511 19.758433 -1.929464 2.282374 8.401752 0.000000 0.000000 0.000000 1.372261 -0.191078 6.865065 -1.249288 1.026001 -7.469760 -8.119649 -0.743358 11.810185 2.148068 5.285918 13.538775 0.000000 0.000000 0.000000 0.419205 1.201011 -3.541823 -3.342600 4.313289 -6.066061 -0.458136 -3.563492 3.156445 0.007206 -0.007320 0.018799 -1.193838 -1.447402 5.611703 1.185368 -5.214249 -1.875565 0.000000 0.000000 0.000000 0.474014 -0.531459 2.957059 5.214605 1.810863 -3.983717 2.396692 22.472991 -40.120606 -3.337162 -40.405313 -3.464251 0.000000 0.000000 0.000000 -3.327917 0.195255 2.565836 8.434330 -12.637087 -9.421419 12.678184 -26.880776 -31.280484 -1.684177 40.074578 -5.174111 0.000000 0.000000 0.000000 
-2.375740 36.716587 33.445351 179.967657 1.635249 179.952972 -3.819839 -1.996743 9.339893 -4.407578 -1.704096 -15.837657 15.619266 11.144931 19.727717 -1.972080 2.277129 8.438225 0.000000 0.000000 0.000000 1.330179 -0.265321 6.859918 -1.274720 1.041512 -7.536707 -8.104028 -0.757448 11.831006 2.112185 5.306060 13.593171 0.000000 0.000000 0.000000 0.394274 1.134933 -3.461788 -3.399243 4.338225 -6.062764 -0.458600 -3.552712 3.179465 -0.010807 -0.004704 0.022487 -1.136656 -1.491272 5.555670 1.210478 -5.198375 -1.755477 0.000000 0.000000 0.000000 0.536888 -0.527331 2.910919 5.153514 1.794526 -3.968826 2.364648 22.539524 -40.035608 -3.290803 -40.401764 -3.468295 0.000000 0.000000 0.000000 -3.271460 0.183089 2.506551 8.453783 -12.594958 -9.439478 12.735309 -26.950478 -31.326007 -1.722428 40.172437 -5.291030 0.000000 0.000000 0.000000 
-2.380705 36.718937 33.460564 -179.953218 1.711754 179.974788 -3.712541 -1.985996 9.351961 -4.363735 -1.738973 -15.891364 15.642025 11.554503 19.693744 -2.059874 2.240160 8.503241 0.000000 0.000000 0.000000 1.411314 -0.222253 6.866251 -1.310284 1.106457 -7.567988 -8.099240 -0.691786 11.818868 2.075452 5.312061 13.622959 0.000000 0.000000 0.000000 0.459696 1.100651 -3.377757 -3.396132 4.352273 -6.063891 -0.412519 -3.565158 3.154575 0.004948 -0.013442 -0.011828 -1.140748 -1.397789 5.580533 1.256776 -5.155046 -1.620621 0.000000 0.000000 0.000000 0.528691 -0.496098 2.895227 5.100015 1.821931 -3.914670 2.404363 22.654841 -39.911015 -3.298264 -40.407618 -3.381345 0.000000 0.000000 0.000000 -3.286481 0.232582 2.532991 8.527129 -12.469259 -9.556119 12.762230 -27.059965 -31.296101 -1.757892 40.269330 -5.307005 0.000000 0.000000 0.000000 
